<svg width="1051" height="1649" xmlns="http://www.w3.org/2000/svg">
    <g>
        <title>background</title>
        <rect fill="none" id="canvas_background" height="1651" width="1053" y="-1" x="-1"/>
    </g>
    <g transform="scale(1)">
        <title>Layer 1</title>
        <path id="position" d="m948.656165,1004.452437l-640,-1280q-17,-35 -57,-35q-5,0 -15,2q-22,5 -35.5,22.5t-13.5,39.5l0,576l-576,0q-22,0 -39.5,13.5t-22.5,35.5t4,42t29,30l1280,640q13,7 29,7q27,0 45,-19q15,-14 18.5,-34.5t-6.5,-39.5z" style="fill:#FFFFFF" transform="rotate(-45.12339401245117 252.40609741210923,764.9520263671876) translate(0,1536) scale(1,-1) "/>
    </g>
</svg>